PathFileType	4	(X/Y/Z)	C:/Users/beibeiliu/ov580/test_trc\sequence.8_training_dense_right.trc
DataRate	CameraRate	NumFrames	NumMarkers	Units	OrigDataRate	OrigDataStartFrame	OrigNumFrames
120	120	16	19	mm	120	1	375
Frame#	Time	ThumbCMC			ThumbMCP			ThumbIP			ThumbTip			IndexMCP			IndexPIP			IndexTip			MiddleMCP			MiddlePIP			MiddleTip			RingMCP			RingPIP			RingTip			PinkyMCP			PinkyPIP			PinkyTip			BackHand1			BackHand2			BackHand3	
		X0	Y0	Z0	X1	Y1	Z1	X2	Y2	Z2	X3	Y3	Z3	X4	Y4	Z4	X5	Y5	Z5	X6	Y6	Z6	X7	Y7	Z7	X8	Y8	Z8	X9	Y9	Z9	X10	Y10	Z10	X11	Y11	Z11	X12	Y12	Z12	X13	Y13	Z13	X14	Y14	Z14	X15	Y15	Z15	X16	Y16	Z16	X17	Y17	Z17	X18	Y18	Z18	
0	0	169.656	-22.3983	23.7122	148.145	-31.2025	3.70105	139.357	-34.9709	-18.412	131.837	-38.8756	-35.6991	174.676	-11.5606	-43.6047	170.643	-17.2227	-69.6448	163.814	-21.586	-87.8418	200.461	-13.4752	-49.5246	197.183	-16.132	-73.6569	201.246	-22.3109	-99.4051	216.919	-20.4232	-43.6191	219.439	-22.8798	-66.5281	223.874	-26.122	-87.9345	233.707	-28.679	-30.6737	242.014	-30.9564	-46.4537	251.216	-29.9199	-59.4725	215.187	-11.2307	-0.0888032	214.962	-6.15323	27.1045	190.235	-3.48453	13.9443	
1	0.00833333	167.463	-22.6245	18.9743	152.359	-31.7805	4.35752	141.211	-34.0704	-20.2258	129.139	-38.6601	-33.1641	174.767	-12.6173	-43.5004	168.908	-15.7813	-69.3918	167.864	-24.2607	-91.5931	196.827	-13.899	-48.7725	196.803	-17.8592	-77.6838	201.153	-23.5648	-101.395	214.706	-20.5074	-46.4059	222.994	-25.5056	-63.688	221.384	-29.5524	-88.1372	232.762	-29.4446	-30.5627	242.146	-32.4912	-48.68	247.001	-33.367	-66.5419	214.686	-12.1524	0.0877205	214.758	-8.04906	26.7985	189.289	-3.25681	10.9883	
2	0.0166667	167.218	-22.8508	24.1483	153.322	-30.5425	1.63027	140.379	-32.2806	-19.3671	132.233	-34.9606	-34.7888	176.188	-12.28	-44.2178	169.579	-15.1696	-65.9884	169.916	-23.5927	-88.8795	197.947	-14.105	-54.0975	197.288	-18.4733	-77.5779	201.87	-27.0269	-102.835	218.07	-21.7716	-45.1856	219.142	-26.8034	-64.5771	221.064	-35.0189	-87.0622	234.042	-28.6274	-32.4428	241.248	-34.7756	-47.2633	245.507	-36.6781	-64.337	216.473	-11.7686	-1.05705	218.564	-7.52894	24.026	192.265	-2.97795	12.4326	
3	0.025	167.013	-21.3043	21.5313	151.767	-28.9746	4.59787	141.777	-29.4142	-20.47	130.136	-32.2681	-34.6733	175.439	-11.6533	-42.2984	170.949	-17.1953	-69.8414	172.346	-25.4878	-89.9911	202.853	-14.9622	-51.587	201.755	-21.7325	-78.2349	203.813	-32.6166	-99.9886	217.48	-21.7482	-46.8629	220.554	-30.501	-68.4929	218.105	-41.4279	-86.651	234.269	-29.6596	-31.013	239.618	-36.1082	-46.0104	245.192	-43.8108	-68.3075	215.084	-9.54102	-0.485828	217.9	-9.54438	27.3705	189.551	-2.97586	9.43918	
4	0.0333333	167.02	-18.7429	20.3496	153.809	-26.5261	3.48207	142.159	-26.4551	-18.7725	131.541	-28.6141	-35.3925	178.757	-11.1352	-46.2966	172.702	-15.7155	-67.3133	174.082	-27.4558	-88.7688	199.555	-14.091	-48.418	200.089	-24.5012	-77.9695	200.304	-36.5492	-97.9096	217.347	-23.4331	-41.7516	217.207	-33.7162	-68.7043	216.056	-47.6389	-86.6881	235.719	-31.9699	-28.0245	240.11	-40.2576	-50.8695	240.887	-51.6647	-67.837	217.13	-10.7889	3.05873	222.143	-8.32667	27.7126	196.446	-3.43273	13.3278	
5	0.0416667	168.881	-18.7926	18.8241	157.052	-25.9679	2.10134	145.457	-26.5459	-15.4131	133.716	-26.537	-32.106	177.752	-10.7107	-44.8915	178.591	-18.0274	-70.0031	169.497	-30.5093	-91.2084	203.584	-15.035	-48.7554	203.811	-24.919	-75.398	199.532	-41.3564	-94.9632	217.753	-23.6532	-45.4264	220.832	-34.8342	-66.1238	212.807	-49.9327	-81.1524	238.229	-33.8424	-31.5613	238.009	-40.7076	-48.6217	237.922	-58.0369	-68.5576	222.715	-12.7582	0.452409	220.537	-9.66074	25.1595	197.673	-3.25704	9.49468	
6	0.05	172.016	-19.7715	19.6289	154.558	-24.3809	3.82659	141.516	-23.2279	-17.1666	130.521	-24.6393	-30.0221	180.377	-10.1959	-45.107	174.627	-17.5809	-70.4856	175.83	-33.7345	-88.8787	201.808	-13.7841	-50.041	201.511	-26.0093	-75.4682	198.323	-48.1488	-93.1457	222.443	-24.1119	-45.2429	221.127	-37.162	-66.0894	213.624	-55.1898	-78.7487	235.639	-32.7543	-29.7833	238.873	-46.5714	-50.1785	230.735	-63.5374	-65.7848	220.497	-10.754	3.5793	219.145	-9.78225	27.8068	196.385	-3.32204	10.5763	
7	0.0583333	171.282	-20.1947	24.447	155.875	-23.5287	3.86547	143.866	-21.9382	-15.7929	131.41	-20.588	-30.7994	179.628	-8.24587	-44.828	178.707	-19.8492	-71.0885	174.082	-38.3175	-88.5058	204.333	-15.0219	-50.9818	201.467	-28.7209	-75.5449	198.483	-57.2475	-89.6087	223.083	-25.4402	-45.2712	220.664	-40.7111	-65.6982	208.217	-58.1729	-74.3316	236.224	-32.4428	-28.382	235.87	-44.307	-48.1478	226.93	-65.4623	-61.4855	220.957	-9.19541	0.0959806	220.702	-9.42485	30.5536	195.06	-2.06408	14.5669	
8	0.0666667	175.086	-19.3055	20.3185	157.053	-22.4087	4.66635	147.502	-20.1671	-13.9377	133.854	-18.5062	-28.7183	183.164	-8.87162	-45.1781	179.057	-18.3448	-69.6143	176.837	-37.6796	-83.1873	206.133	-14.7443	-48.9705	202.016	-33.0739	-75.0372	196.181	-55.5178	-82.1201	220.888	-23.7099	-40.9487	217.669	-40.2891	-61.9939	205.424	-66.0597	-67.2482	237.805	-34.164	-29.651	231.791	-48.2961	-48.3915	222.889	-68.383	-52.8218	226.329	-10.7792	2.66106	224.854	-11.1474	28.4213	199.636	-3.95094	16.2179	
9	0.075	173.362	-17.9176	25.4988	157.588	-20.5596	4.02625	147.395	-16.7391	-13.6853	135.114	-13.2663	-30.5625	187.474	-8.05058	-44.7214	179.938	-17.0062	-66.5128	176.532	-44.1143	-79.1966	203.944	-14.5231	-51.3434	200.96	-35.9603	-72.9217	192.33	-60.8931	-74.4974	222.424	-25.4725	-40.762	215.405	-43.3674	-59.9106	201.247	-67.1722	-57.165	239.432	-37.1642	-29.5008	230.229	-52.1155	-46.6377	212.057	-68.3689	-46.7798	221.962	-12.8032	5.46416	225.419	-12.6713	27.8571	203.109	-2.72501	17.5443	
10	0.0833333	177.589	-16.0855	21.5428	157.546	-15.1227	1.69812	146.275	-12.2393	-16.3066	137.807	-9.10068	-33.4947	187.796	-7.07443	-42.4184	181.251	-22.2998	-69.5947	179.738	-46.7015	-75.0239	207.339	-18.3402	-51.0906	203.439	-38.7704	-70.3659	190.894	-66.1861	-62.0764	223.688	-30.5066	-44.9758	213.666	-50.1824	-57.9448	197.745	-69.4732	-45.7214	238.494	-41.6947	-30.2939	225.431	-56.4861	-44.479	203.4	-70.4339	-34.1667	224.143	-13.8377	6.28554	225.965	-12.4961	31.2708	203.53	-5.00079	16.712	
11	0.0916667	176.933	-16.1215	24.3666	164.397	-14.8743	1.90447	150.416	-6.82207	-20.3983	138.814	-2.15772	-35.6151	188.367	-8.54995	-46.449	184.384	-26.097	-69.042	175.278	-53.1689	-67.1285	205.989	-19.6669	-49.0716	199.002	-45.7777	-67.4605	183.946	-67.0014	-50.4313	222.541	-34.4158	-45.0481	210.642	-56.5485	-53.2948	193.126	-67.6248	-31.9911	232.107	-44.3745	-34.4638	217.965	-63.6409	-40.5724	201.177	-68.7968	-22.7267	228.172	-15.9471	0.0882972	226.643	-15.0933	28.5999	202.198	-3.59809	11.5447	
12	0.1	176.694	-13.0771	22.3413	165.289	-11.81	0.553933	154.199	-5.63582	-16.8804	143.734	1.26594	-32.4612	189.716	-9.5702	-50.3356	184.205	-30.4508	-67.5589	171.423	-52.0451	-61.1016	205.028	-24.9304	-54.323	196.366	-53.6568	-60.697	184.507	-66.0937	-37.522	219.356	-39.6735	-45.9274	204.942	-63.8886	-45.8715	190.185	-63.5156	-22.462	231.88	-50.4779	-34.2362	212.497	-64.9232	-35.8117	198.386	-61.7075	-14.4553	228.858	-15.2845	0.277672	227.513	-17.2534	26.7716	205.488	-2.38712	14.3079	
13	0.108333	182.519	-13.6578	18.3781	166.645	-9.79574	-1.48703	159.056	-1.90006	-19.6501	147.149	4.54561	-31.6805	194.5	-14.569	-48.049	184.63	-36.3431	-65.2219	169.959	-58.153	-47.5444	210.204	-30.6535	-50.077	194.726	-56.3556	-57.332	183.339	-63.5407	-25.1466	218.922	-48.3772	-44.6748	198.507	-62.4362	-41.1323	191.118	-62.9717	-16.0491	231.395	-55.8079	-30.3168	207.67	-69.1239	-27.3917	197.996	-59.0522	-10.001	229.712	-19.3409	2.24421	229.415	-19.257	25.0972	207.506	-3.21311	13.2275	
14	0.116667	182.421	-11.8417	16.555	166.559	-6.77194	-1.02451	161.452	1.51142	-20.7973	150.814	12.7765	-36.6683	193.111	-18.6326	-53.3516	181.575	-43.8462	-60.6592	168.207	-56.2452	-40.1088	204.496	-35.2007	-50.7572	191.526	-60.8787	-51.7556	181.706	-59.7668	-18.9832	216.904	-53.8975	-41.2534	193.784	-68.2678	-31.4575	191.055	-55.7503	-6.57342	226.564	-60.228	-28.5696	205.83	-74.0322	-22.9306	199.093	-55.5148	-0.925765	233.428	-25.2525	-0.217015	228.891	-20.3694	26.1108	209.979	-6.80458	7.70903	
15	0.125	183.356	-9.02628	14.6073	171.309	-6.15916	-4.17679	163.958	4.10323	-21.9316	156.319	12.8042	-35.1283	192.646	-22.4596	-53.4285	176.389	-46.5459	-56.6396	166.097	-53.9692	-31.7296	202.572	-42.6246	-50.64	182.27	-62.4444	-43.4687	178.832	-56.4606	-14.6835	209.941	-55.7474	-40.5858	193.404	-72.0036	-28.3713	191.487	-55.8603	-2.01887	222.85	-65.6447	-27.4262	201.456	-73.8798	-17.7976	198.835	-54.5528	1.40476	235.616	-28.4976	-0.233253	233.444	-24.3182	23.2933	211.94	-8.51446	9.51966	
